<?xml version="1.0" standalone="no"?>
<!DOCTYPE svg PUBLIC "-//W3C//DTD SVG 20010904//EN"
 "http://www.w3.org/TR/2001/REC-SVG-20010904/DTD/svg10.dtd">
<svg version="1.0" xmlns="http://www.w3.org/2000/svg"
 width="1024.000000pt" height="1024.000000pt" viewBox="0 0 1024.000000 1024.000000"
 preserveAspectRatio="xMidYMid meet">

<g transform="translate(0.000000,1024.000000) scale(0.100000,-0.100000)"
fill="#000000" stroke="none">
<path d="M5022 9021 c-87 -25 -169 -78 -224 -146 -66 -81 -97 -152 -110 -251
l-10 -83 -42 -6 c-344 -55 -817 -281 -1121 -537 -192 -161 -390 -377 -515
-563 l-51 -75 -47 0 c-81 -1 -165 -54 -191 -123 -25 -65 -8 -158 36 -209 14
-16 11 -28 -25 -125 -132 -355 -178 -630 -169 -1018 5 -242 29 -415 87 -632
89 -332 254 -652 486 -943 86 -108 274 -295 384 -383 396 -319 840 -510 1349
-583 l124 -18 73 -112 c41 -62 79 -116 84 -119 17 -10 32 7 111 124 l72 108
121 17 c318 44 583 125 861 261 508 249 935 676 1189 1185 133 267 212 524
252 815 24 168 24 528 0 690 -32 222 -83 421 -158 612 l-39 102 28 48 c39 68
40 153 1 209 -43 60 -87 85 -163 92 -36 2 -65 8 -65 13 0 16 -179 246 -267
344 -363 403 -870 701 -1368 806 -33 7 -66 17 -72 22 -7 5 -13 31 -13 57 0
191 -174 393 -369 430 -78 15 -167 11 -239 -9z m235 -116 c158 -47 277 -218
259 -373 -27 -229 -243 -370 -464 -303 -204 62 -307 304 -211 494 77 150 257
229 416 182z m-547 -514 c0 -20 -5 -22 -167 -67 -309 -85 -667 -273 -912 -479
-172 -146 -365 -356 -478 -522 -44 -65 -59 -80 -70 -72 -23 19 -15 37 59 142
347 489 847 837 1413 983 154 39 155 39 155 15z m1047 -27 c204 -51 479 -169
668 -289 297 -187 584 -459 752 -711 46 -69 54 -88 47 -105 -9 -20 -16 -13
-74 71 -334 489 -823 832 -1422 1000 -96 27 -118 37 -118 52 0 20 -11 22 147
-18z m-63 -156 c611 -168 1116 -551 1431 -1083 142 -241 234 -492 292 -805 25
-133 25 -590 0 -731 -32 -186 -36 -197 -59 -191 -18 4 -19 10 -13 46 30 189
37 253 42 406 22 651 -204 1230 -658 1690 -286 289 -598 473 -1014 599 -203
62 -225 69 -196 70 18 1 21 4 12 14 -6 8 -8 17 -4 20 7 8 26 4 167 -35z
m-1369 -103 c-27 -13 -54 -24 -60 -24 -5 0 13 11 40 25 28 13 55 24 60 23 6 0
-12 -11 -40 -24z m-105 -45 c-19 -11 -39 -19 -45 -19 -5 0 6 8 25 19 19 11 40
19 45 19 6 0 -6 -8 -25 -19z m-65 -30 c-3 -5 -12 -10 -18 -10 -7 0 -6 4 3 10
19 12 23 12 15 0z m-40 -20 c-3 -5 -12 -10 -18 -10 -7 0 -6 4 3 10 19 12 23
12 15 0z m985 -287 c0 -65 4 -123 8 -130 15 -23 55 -31 85 -17 l27 15 0 119
c0 118 0 120 23 120 12 0 32 -3 45 -6 21 -6 22 -11 22 -112 0 -120 10 -142 66
-142 51 0 63 25 56 126 -2 46 -1 84 4 84 23 0 120 -66 179 -121 78 -74 121
-154 131 -248 4 -36 3 -62 -2 -59 -111 53 -93 51 -304 46 -164 -3 -201 -6
-223 -20 -49 -33 -44 -93 10 -117 34 -15 447 -15 476 1 19 10 20 9 9 -4 -7 -9
-13 -32 -14 -51 -1 -31 -4 -35 -19 -26 -10 5 -113 9 -229 9 l-212 0 -29 -29
c-42 -42 -38 -81 12 -106 22 -12 73 -15 233 -15 201 0 204 0 199 -20 -3 -13 1
-26 11 -33 13 -9 -28 -11 -196 -9 -232 3 -259 -2 -278 -48 -16 -38 -10 -59 20
-81 22 -15 53 -18 242 -21 120 -2 218 -6 218 -9 0 -4 -18 -14 -40 -23 -22 -9
-40 -20 -40 -26 0 -6 -62 -10 -169 -10 -93 0 -181 -4 -194 -9 -26 -10 -53 -62
-43 -86 3 -8 0 -15 -7 -15 -7 -1 6 -9 28 -20 35 -17 66 -20 250 -22 l210 -3
-177 -2 c-107 -2 -178 -7 -178 -13 0 -6 -7 -10 -15 -10 -8 0 -15 6 -15 13 0 8
-4 7 -10 -3 -6 -9 -13 -11 -17 -5 -5 6 -18 16 -30 23 -19 10 -23 10 -23 -3 0
-8 -9 -15 -20 -15 -14 0 -20 -7 -20 -23 0 -13 -9 -34 -20 -47 -11 -13 -20 -18
-20 -12 0 6 -13 18 -30 27 -23 12 -71 15 -242 15 -196 0 -215 -2 -243 -20 -16
-11 -33 -20 -37 -20 -5 0 -8 36 -8 80 0 44 2 80 6 80 3 0 22 -11 42 -25 36
-25 39 -25 251 -25 207 0 216 1 238 22 31 29 29 54 -6 89 l-29 29 -207 0
c-186 0 -210 -2 -245 -20 -22 -11 -42 -20 -45 -20 -3 0 -5 36 -5 80 0 44 2 80
6 80 3 0 22 -11 42 -25 36 -25 40 -25 240 -25 223 0 256 7 268 56 8 31 -21 75
-57 85 -13 4 -114 4 -224 1 -170 -4 -205 -8 -230 -24 -16 -10 -33 -18 -37 -18
-5 0 -8 36 -8 81 l0 81 44 -26 c44 -26 47 -26 250 -26 l204 0 31 26 c38 32 40
62 5 95 -25 24 -27 24 -237 24 l-212 0 -40 -28 -40 -27 -3 81 c-2 45 -1 83 1
86 3 2 20 -5 38 -16 30 -16 60 -19 244 -24 225 -5 257 0 268 44 8 29 -10 65
-40 78 -15 7 -99 11 -226 11 -199 0 -203 0 -239 -25 -45 -31 -52 -22 -44 53
14 118 117 262 238 332 84 48 88 45 88 -57 0 -97 13 -123 60 -123 49 0 59 24
62 145 l3 110 30 6 c17 4 36 7 43 8 9 1 12 -29 12 -116z m-1400 14 c0 -2 -10
-12 -22 -23 l-23 -19 19 23 c18 21 26 27 26 19z m436 -33 c29 -115 -65 -357
-214 -553 l-62 -80 41 -88 c97 -209 115 -372 52 -464 -28 -41 -29 -46 -17 -74
21 -47 17 -142 -7 -191 -54 -112 -206 -149 -286 -69 -38 38 -42 66 -13 95 32
32 78 18 50 -15 -7 -8 -9 -26 -6 -39 5 -19 15 -27 41 -32 105 -19 185 51 185
163 0 75 -9 82 -68 50 -122 -66 -247 -35 -303 76 -17 32 -20 54 -17 113 3 64
10 85 56 177 33 64 85 144 135 207 l83 103 -34 85 c-47 117 -61 200 -42 254
23 64 36 58 43 -19 7 -74 26 -147 58 -221 l21 -47 31 37 c102 118 197 320 216
462 6 43 14 82 17 87 11 18 34 8 40 -17z m-517 -47 c-67 -64 -87 -97 -58 -97
5 0 19 10 31 23 70 66 62 50 -16 -33 -227 -241 -399 -512 -501 -790 -42 -116
-48 -125 -88 -134 -26 -6 -27 -5 -21 21 14 59 101 264 164 389 75 146 159 272
278 414 76 91 224 240 239 240 4 0 -9 -15 -28 -33z m705 -313 c30 -29 10 -74
-32 -74 -49 0 -67 37 -35 72 20 22 46 23 67 2z m2220 -139 c20 -41 38 -87 41
-102 6 -27 6 -27 -9 -9 -9 11 -16 14 -16 8 0 -7 -9 -12 -20 -12 -13 0 -22 -9
-26 -26 -5 -19 -9 -22 -15 -12 -7 10 -9 10 -9 -2 0 -13 -1 -13 -10 0 -8 11 -9
7 -4 -15 6 -26 5 -28 -8 -17 -13 10 -17 7 -29 -20 -8 -18 -12 -39 -11 -46 2
-7 -1 -11 -6 -10 -14 4 -107 -124 -104 -142 2 -11 1 -12 -6 -3 -6 9 -21 -1
-53 -34 -24 -26 -32 -38 -18 -25 30 26 42 28 30 5 -14 -29 -33 -86 -35 -108
-1 -11 -7 -30 -14 -42 -7 -12 -12 -33 -12 -46 0 -56 -58 -119 -180 -197 -38
-24 -70 -50 -70 -57 0 -7 -11 -13 -25 -13 -21 0 -25 -5 -25 -29 0 -16 3 -31 8
-34 4 -2 2 -2 -5 -1 -7 2 -15 -1 -18 -6 -4 -6 -14 -10 -24 -10 -10 0 -23 -6
-29 -13 -8 -10 -6 -13 11 -14 17 -2 19 0 7 7 -9 6 -10 10 -3 10 19 0 26 -20 9
-26 -9 -3 -16 -15 -16 -25 0 -10 -6 -19 -12 -20 -10 0 -10 -2 -1 -5 6 -3 26 2
43 11 18 9 34 15 36 12 7 -7 -169 -85 -319 -141 -141 -53 -423 -147 -567 -190
-41 -13 -150 -46 -242 -74 -92 -29 -169 -52 -170 -52 -2 0 -2 18 0 41 3 32 9
42 30 50 14 5 33 19 42 29 10 11 25 20 34 20 10 0 15 4 12 8 -3 5 45 10 107
11 99 2 114 4 134 23 29 27 29 55 3 63 -22 7 -50 -9 -50 -28 0 -6 7 -2 16 9
14 18 15 18 4 -4 -12 -24 -32 -21 -28 5 2 9 -5 17 -15 18 -9 2 -15 -1 -11 -6
3 -5 -2 -9 -10 -9 -9 0 -16 -4 -16 -10 0 -5 -9 -10 -21 -10 -11 0 -18 4 -15 9
4 5 -17 2 -44 -7 -31 -10 -49 -21 -46 -28 5 -13 -11 -13 -30 -1 -6 3 -19 -2
-29 -13 -10 -11 -23 -20 -29 -20 -6 0 -4 5 4 11 22 15 -15 4 -130 -38 -339
-126 -572 -319 -642 -533 -13 -40 -23 -102 -26 -164 l-4 -99 -34 53 c-49 78
-75 162 -81 265 -6 107 6 177 47 264 35 74 136 184 224 243 143 98 386 191
826 318 200 57 549 174 733 246 150 59 344 158 462 235 129 85 311 261 364
352 42 72 91 215 91 268 0 22 4 38 9 34 5 -3 26 -39 45 -80z m-3594 40 c53
-27 59 -71 14 -95 -13 -8 -24 -20 -24 -28 0 -7 -9 -16 -20 -19 -11 -3 -20 -9
-20 -14 0 -5 -18 -7 -41 -6 -47 3 -69 25 -69 69 0 86 82 134 160 93z m4512 -5
c83 -64 49 -186 -54 -197 -37 -4 -49 -1 -76 22 -78 65 -33 195 68 195 22 0 48
-8 62 -20z m-3997 -293 c23 -44 17 -71 -18 -75 -26 -3 -27 -2 -27 46 0 72 16
82 45 29z m-555 -59 c0 -2 -18 -58 -40 -125 -117 -360 -155 -640 -132 -973 32
-459 165 -843 420 -1215 133 -196 270 -345 457 -500 296 -247 720 -446 1096
-515 162 -30 159 -29 159 -46 0 -14 -9 -15 -57 -9 -321 38 -713 187 -1010 385
-512 340 -887 858 -1034 1427 -53 208 -70 338 -76 578 -8 305 17 491 100 780
48 163 71 215 97 215 11 0 20 -1 20 -2z m490 -33 c0 -59 -39 -97 -80 -75 -44
23 -4 100 52 100 23 0 28 -4 28 -25z m4059 -24 c31 -60 79 -223 106 -353 73
-363 74 -673 5 -1020 -76 -379 -241 -738 -469 -1023 -245 -306 -525 -533 -866
-701 -228 -112 -519 -203 -704 -220 -63 -6 -71 -5 -65 9 6 16 16 19 124 37
220 36 480 126 700 242 226 120 416 264 611 464 279 287 478 629 588 1015 134
469 115 1016 -54 1508 -14 41 -25 78 -25 82 0 20 33 -7 49 -40z m-2189 -261
c0 9 4 9 13 2 6 -6 28 -12 47 -15 23 -2 13 -4 -27 -5 -34 -1 -64 2 -67 7 -9
14 6 22 21 10 10 -9 13 -8 13 1z m-149 -128 c-21 -39 -61 -62 -110 -62 -67 0
-90 -9 -97 -36 -6 -24 -7 -24 -155 -26 -82 -1 -159 -2 -171 -2 -22 -1 -23 4
-26 72 -2 39 0 72 4 72 4 0 23 -12 43 -27 l36 -28 208 -3 c224 -3 247 1 262
48 4 12 9 19 12 17 2 -3 0 -14 -6 -25z m1619 -281 c21 -112 -7 -256 -76 -378
-42 -75 -177 -217 -259 -271 -27 -19 -41 -25 -30 -15 27 25 31 63 6 63 -15 0
-20 9 -22 43 -5 58 -1 77 17 77 8 0 14 6 13 13 -4 22 13 51 76 127 87 106 114
149 184 289 38 74 66 120 72 114 5 -5 13 -33 19 -62z m-3251 -97 c13 -9 29
-32 37 -50 42 -101 -110 -181 -170 -89 -58 88 48 198 133 139z m3570 -186 c38
-60 37 -104 0 -144 -13 -13 -18 -24 -13 -24 5 -1 -4 -8 -20 -16 -22 -13 -26
-18 -15 -25 10 -6 3 -9 -22 -9 -48 0 -89 32 -89 70 0 32 17 53 61 75 20 11 32
27 40 58 18 66 18 67 22 67 2 0 19 -23 36 -52z m-2249 8 c0 -8 -31 -36 -41
-36 -18 0 -9 21 14 30 28 11 27 11 27 6z m-1484 -171 c33 -33 30 -80 -8 -108
-31 -23 -67 -18 -98 15 -27 30 -25 64 6 93 34 32 68 32 100 0z m1264 -45 c-8
-5 -22 -10 -30 -10 -13 0 -13 1 0 10 8 5 22 10 30 10 13 0 13 -1 0 -10z m115
-250 c-3 -5 -14 -10 -23 -9 -14 0 -13 2 3 9 27 11 27 11 20 0z m-70 -50 c-4
-6 -13 -9 -21 -6 -18 7 -18 -33 0 -57 17 -22 9 -57 -13 -57 -13 0 -13 -2 -2
-9 13 -9 12 -24 -5 -65 -8 -20 -2 -20 51 -1 11 4 -16 -14 -60 -40 -48 -29
-113 -81 -162 -130 -66 -66 -90 -98 -124 -168 -63 -132 -74 -269 -28 -377 l19
-45 -31 35 c-41 45 -92 156 -115 247 -27 105 -11 204 52 333 39 77 62 109 128
175 77 76 211 165 253 169 10 0 21 6 25 11 5 6 8 5 8 -2 0 -7 5 -13 11 -13 6
0 8 7 4 18 -5 13 -3 14 6 5 6 -6 8 -16 4 -23z m526 -260 c1 -41 4 -58 6 -38 4
36 5 36 24 20 47 -39 51 -69 50 -372 0 -157 -5 -321 -11 -365 -6 -44 -11 -101
-11 -127 0 -27 -4 -48 -9 -48 -6 0 -10 -7 -10 -15 0 -8 5 -15 10 -15 13 0 13
-27 0 -32 -8 -3 -17 -116 -19 -268 -1 -35 -4 -50 -10 -42 -5 8 -12 -95 -16
-245 -4 -142 -10 -287 -14 -323 l-6 -64 -42 64 c-55 85 -140 233 -147 257 -3
11 -2 143 4 294 5 151 16 508 25 794 8 286 18 548 21 583 6 72 12 76 86 77 27
0 48 5 49 10 3 28 18 -80 20 -145z m-1666 39 c8 -35 -5 -55 -29 -46 -16 6 -23
57 -9 70 15 16 32 5 38 -24z m3294 -64 c0 -63 -15 -171 -18 -135 -1 8 -8 1
-17 -16 -22 -46 -70 -94 -93 -94 -12 0 -21 -4 -21 -8 0 -11 -91 -32 -136 -32
-19 0 -53 9 -76 21 -22 11 -65 23 -94 26 -36 4 -54 10 -54 19 0 8 -10 14 -24
14 -14 0 -37 5 -52 10 -21 9 -31 7 -48 -7 -16 -14 -16 -12 3 9 13 15 27 25 31
23 4 -3 7 3 6 13 -1 12 5 16 19 15 168 -21 251 -11 365 47 63 32 174 134 186
172 12 37 24 -2 23 -77z m-3374 8 c-9 -38 -23 -53 -50 -53 -21 0 -35 17 -35
40 0 19 33 40 62 40 28 0 30 -2 23 -27z m329 -309 c35 -13 12 -54 -30 -54 -17
0 -19 46 -1 53 6 3 13 6 14 6 1 1 8 -2 17 -5z m1513 -376 c-2 -24 -4 -7 -4 37
0 44 2 63 4 43 2 -21 2 -57 0 -80z m-70 -660 c-3 -8 -6 -5 -6 6 -1 11 2 17 5
13 3 -3 4 -12 1 -19z"/>
<path d="M5093 8880 c-64 -13 -109 -38 -159 -87 -75 -73 -107 -176 -84 -273 7
-27 16 -50 21 -50 4 0 6 7 2 15 -3 9 -1 15 3 13 12 -4 64 37 64 49 0 5 12 16
28 25 15 9 39 28 54 42 15 14 32 26 37 26 6 0 14 6 18 14 11 18 69 47 78 38 5
-4 5 1 2 11 -4 11 -3 16 3 12 6 -3 13 1 16 9 3 9 12 16 20 16 8 0 14 5 14 10
0 6 7 10 15 10 8 0 15 4 15 10 0 5 18 23 40 39 l41 29 -53 20 c-69 26 -123 32
-175 22z"/>
<path d="M3764 6958 c-125 -157 -183 -264 -191 -358 -7 -70 7 -110 50 -146 28
-23 38 -26 92 -22 62 4 125 35 125 62 0 7 -18 36 -40 66 -60 80 -64 150 -9
150 15 0 19 -7 19 -33 0 -47 75 -153 96 -136 39 32 40 145 4 261 -22 72 -83
218 -91 218 -3 0 -28 -28 -55 -62z"/>
<path d="M5130 5906 c7 -7 13 -7 20 0 6 6 3 10 -10 10 -13 0 -16 -4 -10 -10z"/>
<path d="M5250 5906 c7 -7 13 -7 20 0 6 6 3 10 -10 10 -13 0 -16 -4 -10 -10z"/>
<path d="M5030 5880 c0 -5 5 -10 11 -10 5 0 7 5 4 10 -3 6 -8 10 -11 10 -2 0
-4 -4 -4 -10z"/>
<path d="M5040 5840 c8 -5 20 -10 25 -10 6 0 3 5 -5 10 -8 5 -19 10 -25 10 -5
0 -3 -5 5 -10z"/>
<path d="M5018 5823 c7 -3 16 -2 19 1 4 3 -2 6 -13 5 -11 0 -14 -3 -6 -6z"/>
<path d="M4848 5783 c6 -2 18 -2 25 0 6 3 1 5 -13 5 -14 0 -19 -2 -12 -5z"/>
<path d="M4640 5741 c0 -10 8 -17 20 -18 11 -1 20 4 20 11 0 8 -9 16 -20 19
-14 4 -20 0 -20 -12z"/>
<path d="M5191 5054 c0 -11 3 -14 6 -6 3 7 2 16 -1 19 -3 4 -6 -2 -5 -13z"/>
<path d="M6606 4852 c-3 -5 1 -9 9 -9 8 0 12 4 9 9 -3 4 -7 8 -9 8 -2 0 -6 -4
-9 -8z"/>
<path d="M5860 2618 c-57 -29 -96 -99 -86 -154 11 -58 51 -91 146 -122 58 -19
86 -32 88 -44 6 -30 -43 -33 -118 -9 -36 11 -69 21 -73 21 -4 0 -18 -22 -32
-49 l-25 -50 55 -26 c72 -36 168 -44 230 -21 84 33 130 115 105 190 -18 55
-60 81 -187 115 -32 9 -43 17 -43 31 0 30 40 34 111 10 40 -14 65 -18 67 -11
2 6 14 27 28 46 13 20 22 40 19 45 -3 5 -30 18 -61 29 -76 29 -166 28 -224 -1z"/>
<path d="M6615 2625 c-100 -35 -137 -160 -68 -229 24 -24 62 -41 153 -68 54
-16 66 -44 23 -54 -18 -5 -48 0 -88 14 -33 12 -64 23 -69 25 -8 2 -63 -78 -65
-95 -1 -3 25 -19 57 -35 49 -24 69 -28 142 -28 103 0 147 22 180 89 43 90 -1
172 -108 202 -92 25 -112 35 -112 55 0 16 8 19 45 19 27 0 63 -9 86 -21 23
-11 42 -19 43 -17 1 2 14 22 29 45 15 24 27 47 27 52 0 5 -15 16 -32 24 -83
39 -173 47 -243 22z"/>
<path d="M2687 2523 c-25 -60 -70 -165 -100 -235 l-55 -128 73 0 c72 0 73 0
84 30 l10 30 96 0 96 0 10 -30 c11 -30 12 -30 86 -30 56 0 74 3 70 13 -3 6
-47 112 -98 235 l-92 222 -67 0 -67 0 -46 -107z m153 -174 c0 -7 -90 -9 -90
-3 0 2 29 86 36 104 4 10 14 -4 30 -39 13 -29 24 -58 24 -62z"/>
<path d="M3370 2396 l0 -236 70 0 70 0 0 70 c0 68 1 70 25 70 20 0 34 -15 71
-70 l47 -70 79 0 79 0 -56 81 c-32 44 -55 83 -51 86 3 3 15 11 27 17 65 33 88
148 42 212 -41 57 -80 69 -250 72 l-153 3 0 -235z m276 92 c37 -37 -15 -78
-97 -78 l-39 0 0 51 0 51 60 -4 c37 -3 67 -11 76 -20z"/>
<path d="M4174 2396 l1 -236 73 0 72 0 0 70 c0 68 1 70 25 70 20 0 34 -15 71
-70 l47 -70 79 0 80 0 -56 80 c-58 83 -66 100 -42 100 23 0 74 67 82 105 10
55 -19 120 -69 153 -39 26 -46 27 -202 30 l-161 4 0 -236z m267 104 c11 -6 19
-21 19 -35 0 -32 -27 -45 -94 -45 l-56 0 0 38 c0 21 3 42 7 45 10 11 102 8
124 -3z"/>
<path d="M4940 2570 l0 -59 73 -3 72 -3 3 -172 2 -173 70 0 70 0 0 175 0 175
80 0 80 0 0 60 0 60 -225 0 -225 0 0 -60z"/>
<path d="M7220 2570 l0 -59 78 -3 77 -3 3 -172 2 -173 65 0 65 0 2 173 3 172
78 3 77 3 0 59 0 60 -225 0 -225 0 0 -60z"/>
<path d="M3570 1749 c0 -92 1 -99 20 -99 18 0 20 7 20 63 l0 62 56 -62 c32
-36 64 -63 75 -63 17 0 19 8 19 95 0 88 -2 95 -20 95 -16 0 -19 -8 -22 -61
l-3 -61 -50 60 c-27 33 -59 62 -72 65 -23 4 -23 3 -23 -94z"/>
<path d="M4193 1839 c-42 -12 -63 -44 -63 -95 0 -59 41 -94 109 -94 56 0 75
17 84 73 l6 38 -46 -3 c-49 -3 -71 -24 -31 -30 35 -5 29 -32 -9 -36 -22 -2
-38 3 -52 17 -26 26 -26 42 -3 72 18 21 41 26 97 17 34 -5 30 28 -6 41 -37 13
-42 13 -86 0z"/>
<path d="M5160 1750 c0 -93 1 -100 20 -100 18 0 20 7 20 66 l0 65 56 -65 c33
-39 63 -66 75 -66 17 0 19 8 19 99 0 93 -1 99 -20 94 -16 -4 -20 -15 -22 -65
l-3 -60 -53 66 c-32 39 -62 66 -73 66 -17 0 -19 -8 -19 -100z"/>
<path d="M5502 1842 c-72 -2 -83 -5 -80 -20 2 -10 14 -18 31 -20 27 -3 27 -4
27 -78 0 -72 1 -74 25 -74 25 0 25 1 25 79 l0 80 34 3 c25 2 32 7 27 18 -5 12
-23 14 -89 12z"/>
<path d="M5893 1840 c-58 -23 -51 -94 11 -106 45 -8 62 -27 41 -44 -11 -9 -22
-9 -46 -1 -34 12 -49 8 -49 -14 0 -17 23 -25 74 -25 52 0 79 25 74 66 -2 24
-11 31 -48 45 -25 9 -45 23 -45 30 0 17 43 25 58 10 16 -16 24 -14 30 8 4 15
-2 22 -26 30 -35 13 -44 13 -74 1z"/>
<path d="M6372 1840 c-12 -5 -27 -21 -34 -35 -14 -31 7 -59 59 -76 23 -7 33
-16 31 -27 -4 -17 -16 -18 -68 -11 -16 3 -25 -1 -28 -12 -2 -12 10 -20 43 -29
42 -12 49 -11 73 7 51 38 35 90 -34 113 -19 7 -34 16 -34 21 0 17 30 22 57 10
21 -10 28 -9 34 1 14 21 11 25 -22 37 -37 13 -46 13 -77 1z"/>
<path d="M2980 1745 c0 -88 2 -95 20 -95 16 0 19 8 22 63 l3 62 30 -57 c16
-32 32 -58 36 -58 3 0 17 24 30 53 l24 52 3 -57 c3 -50 6 -58 22 -58 18 0 20
7 20 95 0 92 -1 95 -23 95 -16 0 -29 -12 -47 -45 -14 -25 -27 -45 -31 -45 -3
0 -17 20 -30 45 -20 37 -29 45 -51 45 l-28 0 0 -95z"/>
<path d="M3325 1778 c-61 -140 -58 -128 -31 -128 15 0 26 7 29 20 4 16 14 20
51 20 35 0 48 -4 56 -20 6 -11 20 -20 31 -20 24 0 22 8 -27 116 -28 62 -37 74
-57 74 -20 0 -29 -11 -52 -62z m75 -40 c0 -13 -8 -18 -25 -18 -28 0 -30 8 -13
45 11 25 13 26 25 9 7 -10 13 -26 13 -36z"/>
<path d="M3911 1817 c-5 -13 -23 -54 -40 -91 -17 -38 -31 -70 -31 -72 0 -2 11
-4 24 -4 15 0 26 7 29 20 4 16 14 20 51 20 35 0 48 -4 56 -20 10 -20 50 -29
50 -11 0 4 -18 47 -40 95 -35 74 -44 86 -66 86 -16 0 -27 -8 -33 -23z m57 -93
c-4 -3 -17 -4 -31 -2 -25 3 -25 3 -10 38 l15 35 16 -32 c8 -18 13 -35 10 -39z"/>
<path d="M4410 1745 l0 -95 80 0 c73 0 80 2 80 20 0 18 -7 20 -60 20 -53 0
-60 2 -60 20 0 18 7 20 55 20 48 0 55 2 55 20 0 18 -7 20 -54 20 -49 0 -54 2
-49 20 5 17 14 20 59 20 41 0 54 4 54 15 0 12 -16 15 -80 15 l-80 0 0 -95z"/>
<path d="M4636 1753 c4 -95 21 -125 26 -46 l3 48 24 -40 23 -40 27 50 26 50 3
-62 c3 -55 6 -63 22 -63 18 0 20 7 20 95 0 94 0 95 -25 95 -19 0 -30 -10 -49
-47 l-24 -48 -23 48 c-14 28 -30 47 -40 47 -14 0 -16 -11 -13 -87z"/>
<path d="M4920 1745 l0 -95 76 0 c66 0 75 2 72 18 -2 13 -15 18 -56 20 -44 3
-52 6 -52 23 0 16 7 19 51 19 43 0 50 3 47 18 -2 13 -15 18 -51 20 -39 3 -48
6 -45 20 2 13 16 18 56 20 37 2 52 7 52 18 0 11 -16 14 -75 14 l-75 0 0 -95z"/>
<path d="M6109 1783 c31 -42 41 -66 41 -95 0 -31 3 -38 20 -38 16 0 20 7 20
37 0 27 11 53 41 95 l40 58 -28 0 c-22 0 -33 -8 -47 -35 -11 -19 -22 -35 -25
-35 -4 0 -15 16 -25 35 -15 28 -25 35 -48 35 l-29 0 40 -57z"/>
<path d="M6550 1826 c0 -9 12 -16 33 -18 l32 -3 3 -77 c3 -70 5 -78 22 -78 18
0 20 7 20 80 l0 80 35 0 c24 0 35 5 35 15 0 12 -17 15 -90 15 -72 0 -90 -3
-90 -14z"/>
<path d="M6810 1745 l0 -95 70 0 c63 0 70 2 70 20 0 17 -7 20 -50 20 -43 0
-50 3 -50 20 0 17 7 20 50 20 38 0 50 4 50 15 0 11 -12 15 -50 15 -43 0 -50 3
-50 20 0 17 7 20 50 20 43 0 50 3 50 20 0 18 -7 20 -70 20 l-70 0 0 -95z"/>
<path d="M7050 1745 c0 -88 2 -95 20 -95 16 0 19 8 22 63 l3 62 27 -57 c15
-32 29 -58 32 -58 3 0 18 24 33 53 l28 52 3 -57 c3 -50 6 -58 22 -58 18 0 20
7 20 95 0 94 0 95 -25 95 -20 0 -30 -10 -51 -52 l-27 -53 -25 53 c-22 44 -30
52 -54 52 l-28 0 0 -95z"/>
<path d="M5140 1046 c-15 -20 -9 -56 12 -70 20 -12 58 16 58 44 0 36 -46 53
-70 26z"/>
<path d="M5300 1012 l0 -34 108 6 c259 15 294 18 285 27 -8 8 -177 24 -336 31
l-57 3 0 -33z"/>
<path d="M4931 1031 c-11 -7 -9 -10 10 -14 14 -2 6 -5 -20 -6 -60 -1 -48 -10
24 -16 32 -3 62 -8 67 -11 4 -3 8 9 8 25 0 29 -2 31 -37 31 -21 0 -44 -4 -52
-9z"/>
</g>
</svg>
